<!DOCTYPE svg PUBLIC "-//W3C//DTD SVG 1.1//EN" "http://www.w3.org/Graphics/SVG/1.1/DTD/svg11.dtd">
<!-- Uploaded to: SVG Repo, www.svgrepo.com, Transformed by: SVG Repo Mixer Tools -->
<svg fill=" #d17609" width="800px" height="800px" viewBox="0 0 512 512" enable-background="new 0 0 512 512" id="Segment_x5F_campaign" version="1.1" xml:space="preserve" xmlns="http://www.w3.org/2000/svg" xmlns:xlink="http://www.w3.org/1999/xlink" stroke=" #d17609" stroke-width="3.5840000000000005">
<g id="SVGRepo_bgCarrier" stroke-width="0"/>
<g id="SVGRepo_tracerCarrier" stroke-linecap="round" stroke-linejoin="round"/>
<g id="SVGRepo_iconCarrier"> <g> <path d="M135.955,290.443c-1.418-1.608-3.515-2.471-5.651-2.27c-2.137,0.18-4.062,1.361-5.19,3.185l-52.079,84.139 c-1.547,2.499-1.306,5.71,0.597,7.95l33.714,39.688L88.89,438.631c-2.991,2.508-7.474,2.125-9.995-0.854l-19.281-22.803 c-2.479-2.932-2.199-7.253,0.639-9.84l3.395-3.097c2.764-2.521,2.962-6.806,0.44-9.569s-6.808-2.964-9.57-0.44l-3.393,3.095 c-8.247,7.515-9.063,20.078-1.857,28.599l19.282,22.803c4.075,4.819,9.915,7.304,15.791,7.304c3.68,0,7.369-0.99,10.653-2.975 l24.256,12.688c3.37,1.814,7.054,2.713,10.726,2.713c4.431,0,8.846-1.311,12.67-3.896l11.14-7.533 c1.826-1.236,2.938-3.283,2.978-5.487s-0.994-4.291-2.775-5.593l-12.471-9.12c-3.02-2.212-7.258-1.548-9.467,1.469 c-2.208,3.021-1.551,7.26,1.47,9.468l4.697,3.434l-3.163,2.141c-2.806,1.896-6.403,2.084-9.455,0.438l-19.132-10.008l14.014-11.766 l92.41-38.564c2.015-0.842,3.501-2.603,3.992-4.73c0.49-2.131-0.076-4.365-1.521-6.002L135.955,290.443z M118.879,415.785 l-31.729-37.351l44.68-72.184l67.119,76.12L118.879,415.785z"/> <path d="M192.172,328.264c1.606,0,3.219-0.569,4.511-1.723l9.674-8.642c2.791-2.493,3.032-6.776,0.54-9.565 c-2.494-2.79-6.777-3.03-9.565-0.539l-9.674,8.642c-2.791,2.493-3.032,6.776-0.54,9.565 C188.456,327.5,190.31,328.264,192.172,328.264z"/> <path d="M232.138,349.051l-12.69,2.686c-3.66,0.775-6,4.37-5.226,8.029c0.675,3.188,3.488,5.374,6.621,5.374 c0.464,0,0.937-0.05,1.409-0.149l12.69-2.686c3.66-0.775,5.999-4.371,5.225-8.029C239.394,350.613,235.799,348.27,232.138,349.051z "/> <path d="M158.807,295.517c0.892,0.396,1.824,0.583,2.74,0.583c2.598,0,5.077-1.504,6.197-4.032l5.255-11.86 c1.516-3.422-0.028-7.423-3.449-8.938c-3.422-1.517-7.422,0.028-8.938,3.449l-5.255,11.86 C153.842,290,155.386,294.001,158.807,295.517z"/> <path d="M448.713,234.543c-5.912-9.696-13.34-18.296-22.075-25.56c-2.882-2.396-7.149-2-9.54,0.879 c-2.393,2.876-1.999,7.146,0.877,9.539c6.883,5.722,12.818,12.407,17.695,19.884c-17.314,19.389-37.398,34.184-61.109,44.978 v-3.239c0-33.218-14.648-64.448-40.189-85.688c-2.879-2.395-7.15-1.999-9.54,0.879c-2.394,2.875-2,7.146,0.877,9.54 c22.436,18.655,35.304,46.091,35.304,75.269v11.934c0,0.264,0.048,0.512,0.077,0.768c-0.13,1.083-0.03,2.207,0.399,3.293 c1.055,2.657,3.604,4.277,6.299,4.277c0.832,0,1.678-0.154,2.496-0.48c30.766-12.204,56.113-30.113,77.494-54.749 c1.422-1.638,1.889-3.758,1.505-5.732C449.942,238.475,449.819,236.356,448.713,234.543z"/> <path d="M393.896,85.938c3.303-0.676,6.701-1.019,10.102-1.019c27.623,0,50.094,22.472,50.094,50.094 c0,27.623-22.471,50.095-50.094,50.095c-10.451,0-20.461-3.184-28.949-9.205c-3.05-2.166-7.279-1.446-9.444,1.604 s-1.446,7.28,1.604,9.445c10.792,7.656,23.514,11.703,36.789,11.703c35.094,0,63.643-28.55,63.643-63.643 c0-35.092-28.549-63.642-63.643-63.642c-4.311,0-8.624,0.435-12.819,1.295c-3.665,0.75-6.027,4.33-5.276,7.995 C386.652,84.326,390.225,86.694,393.896,85.938z"/> <path d="M310.12,183.045c37.854,0,68.649-30.796,68.649-68.649s-30.796-68.649-68.649-68.649s-68.649,30.796-68.649,68.649 S272.267,183.045,310.12,183.045z M310.12,59.295c30.383,0,55.101,24.719,55.101,55.101s-24.718,55.101-55.101,55.101 s-55.101-24.719-55.101-55.101S279.737,59.295,310.12,59.295z"/> <path d="M325.531,299.297c-22.498,2.42-45.268-0.57-66.303-8.629v-9.645c0-29.178,12.867-56.613,35.303-75.269 c2.877-2.394,3.27-6.665,0.877-9.541c-2.389-2.875-6.662-3.269-9.539-0.878c-25.541,21.239-40.189,52.47-40.189,85.688v3.672 c-23.064-11.158-43.028-25.775-59.417-43.572c5.08-8.218,11.405-15.523,18.858-21.722c2.877-2.393,3.269-6.665,0.877-9.541 c-2.393-2.875-6.663-3.267-9.54-0.877c-9.412,7.828-17.28,17.171-23.386,27.771c-1.406,2.439-1.12,5.387,0.488,7.494 c-0.117,1.77,0.446,3.582,1.732,4.999c19.483,21.475,43.697,38.686,71.966,51.158c19.858,8.761,41.358,13.258,63.006,13.258 c5.57,0,11.152-0.297,16.717-0.898c3.721-0.4,6.41-3.74,6.01-7.46S329.245,298.904,325.531,299.297z"/> <path d="M219.098,198.655c13.276,0,25.998-4.047,36.789-11.703c3.051-2.165,3.77-6.395,1.605-9.445 c-2.166-3.051-6.393-3.769-9.446-1.604c-8.487,6.021-18.498,9.205-28.949,9.205c-27.623,0-50.094-22.472-50.094-50.095 c0-27.622,22.471-50.094,50.094-50.094c3.4,0,6.799,0.343,10.102,1.019c3.672,0.759,7.246-1.613,7.995-5.276 c0.75-3.665-1.612-7.245-5.277-7.995c-4.195-0.86-8.509-1.295-12.82-1.295c-35.093,0-63.643,28.55-63.643,63.642 C155.455,170.105,184.004,198.655,219.098,198.655z"/> </g> </g>
</svg>