<!DOCTYPE svg PUBLIC "-//W3C//DTD SVG 1.1//EN" "http://www.w3.org/Graphics/SVG/1.1/DTD/svg11.dtd">
<!-- Uploaded to: SVG Repo, www.svgrepo.com, Transformed by: SVG Repo Mixer Tools -->
<svg width="800px" height="800px" viewBox="0 0 1024 1024" fill="#d17609" class="icon" version="1.1" xmlns="http://www.w3.org/2000/svg">
<g id="SVGRepo_bgCarrier" stroke-width="0"/>
<g id="SVGRepo_tracerCarrier" stroke-linecap="round" stroke-linejoin="round"/>
<g id="SVGRepo_iconCarrier">
<path d="M288.554 32.146c-4.422 0-8.076-3.576-8.076-7.996 0-4.422 3.498-7.998 7.904-7.998h0.172a8.004 8.004 0 0 1 7.998 7.998 8.004 8.004 0 0 1-7.998 7.996zM320.544 32.146c-4.422 0-8.076-3.576-8.076-7.996 0-4.422 3.498-7.998 7.904-7.998h0.172a8 8 0 0 1 7.996 7.998 8 8 0 0 1-7.996 7.996zM352.534 32.146c-4.42 0-8.076-3.576-8.076-7.996 0-4.422 3.498-7.998 7.904-7.998h0.17a8.002 8.002 0 0 1 7.998 7.998 8 8 0 0 1-7.996 7.996z" fill=""/>
<path d="M767.922 48.142H256.08a7.994 7.994 0 0 1-7.998-7.998v-15.994c0-13.23 10.762-23.994 23.992-23.994h479.852c13.23 0 23.992 10.764 23.992 23.994v15.994a7.992 7.992 0 0 1-7.996 7.998z m-503.846-15.996h495.85v-7.996a8.014 8.014 0 0 0-8-7.998H272.074a8.014 8.014 0 0 0-7.998 7.998v7.996z" fill=""/>
<path d="M767.922 384.04H256.08a7.994 7.994 0 0 1-7.998-7.998V40.144a7.994 7.994 0 0 1 7.998-7.998h511.842a7.992 7.992 0 0 1 7.996 7.998V376.04c0 4.422-3.574 8-7.996 8z m-503.846-15.996h495.85V48.142H264.076v319.902z" fill=""/>
<path d="M735.934 176.104H288.07a7.994 7.994 0 0 1-7.998-7.998V72.134a7.994 7.994 0 0 1 7.998-7.998h447.864a7.994 7.994 0 0 1 7.996 7.998v95.97c0 4.422-3.578 8-7.996 8z m-439.868-15.996h431.868V80.132H296.066v79.976z" fill=""/>
<path d="M687.946 128.118H336.054a7.994 7.994 0 0 1-7.998-7.998 7.992 7.992 0 0 1 7.998-7.996h351.892c4.422 0 8 3.576 8 7.996a7.994 7.994 0 0 1-8 7.998zM735.934 224.088H527.996c-4.422 0-8-3.576-8-7.998a7.994 7.994 0 0 1 8-7.996h207.938a7.992 7.992 0 0 1 7.996 7.996 7.992 7.992 0 0 1-7.996 7.998zM735.934 256.078H527.996c-4.422 0-8-3.576-8-7.998a7.994 7.994 0 0 1 8-7.996h207.938a7.992 7.992 0 0 1 7.996 7.996 7.992 7.992 0 0 1-7.996 7.998zM735.934 288.068H527.996c-4.422 0-8-3.576-8-7.998a7.994 7.994 0 0 1 8-7.996h207.938a7.992 7.992 0 0 1 7.996 7.996 7.992 7.992 0 0 1-7.996 7.998zM631.964 320.058h-103.968c-4.422 0-8-3.576-8-7.998a7.994 7.994 0 0 1 8-7.996h103.968a7.992 7.992 0 0 1 7.996 7.996 7.992 7.992 0 0 1-7.996 7.998zM496.004 352.048H288.07a7.994 7.994 0 0 1-7.998-7.998v-143.956a7.994 7.994 0 0 1 7.998-7.998h207.936a7.994 7.994 0 0 1 7.998 7.998v143.956a7.994 7.994 0 0 1-8 7.998z m-199.938-15.994h191.94v-127.96h-191.94v127.96z" fill=""/>
<path d="M480.01 352.048a8 8 0 0 1-6.856-3.888l-41.128-68.542-41.128 68.542c-2.28 3.81-7.2 5.044-10.966 2.748a7.976 7.976 0 0 1-2.748-10.964l47.984-79.974c2.876-4.844 10.84-4.844 13.714 0l47.986 79.974a7.974 7.974 0 0 1-2.75 10.964 7.846 7.846 0 0 1-4.108 1.14z" fill=""/>
<path d="M336.054 352.048a8 8 0 0 1-6.654-12.434l31.99-47.984c2.968-4.438 10.34-4.438 13.308 0l24.242 36.364a8 8 0 0 1-2.216 11.09 8.03 8.03 0 0 1-11.09-2.218l-17.588-26.38-25.336 38.004a8.002 8.002 0 0 1-6.656 3.558zM336.054 272.074c-13.23 0-23.992-10.764-23.992-23.994s10.762-23.992 23.992-23.992 23.994 10.762 23.994 23.992-10.764 23.994-23.994 23.994z m0-31.99a8.014 8.014 0 0 0-7.998 7.996 8.012 8.012 0 0 0 7.998 7.998 8.012 8.012 0 0 0 7.998-7.998 8.014 8.014 0 0 0-7.998-7.996zM512 622.966a7.994 7.994 0 0 1-7.998-7.998v-191.942a7.994 7.994 0 0 1 7.998-7.998 7.992 7.992 0 0 1 7.996 7.998v191.942a7.992 7.992 0 0 1-7.996 7.998z" fill=""/>
<path d="M512 622.966a7.994 7.994 0 0 1-5.654-13.652l15.994-15.996a7.996 7.996 0 1 1 11.308 11.31l-15.992 15.994a7.968 7.968 0 0 1-5.656 2.344z" fill=""/>
<path d="M512 622.966a7.972 7.972 0 0 1-5.654-2.344l-15.996-15.994a7.996 7.996 0 1 1 11.308-11.31l15.998 15.996a7.998 7.998 0 0 1-5.656 13.652z" fill=""/>
<path d="M144.112 622.966a7.994 7.994 0 0 1-7.998-7.998v-110.966a7.994 7.994 0 0 1 7.998-7.998 7.994 7.994 0 0 1 7.998 7.998v110.966a7.994 7.994 0 0 1-7.998 7.998z" fill=""/>
<path d="M144.112 622.966a7.994 7.994 0 0 1-5.654-13.652l15.996-15.996a7.996 7.996 0 1 1 11.308 11.31l-15.996 15.994a7.956 7.956 0 0 1-5.654 2.344z" fill=""/>
<path d="M144.112 622.966a7.976 7.976 0 0 1-5.654-2.344l-15.994-15.994a7.996 7.996 0 1 1 11.308-11.31l15.996 15.996a7.994 7.994 0 0 1-5.656 13.652z" fill=""/>
<path d="M416.514 687.946c-4.42 0-8.076-3.576-8.076-7.996 0-4.422 3.498-7.998 7.904-7.998h0.172a8.002 8.002 0 0 1 7.998 7.998 8.004 8.004 0 0 1-7.998 7.996zM448.504 687.946c-4.42 0-8.076-3.576-8.076-7.996 0-4.422 3.498-7.998 7.904-7.998h0.172a8.002 8.002 0 0 1 7.998 7.998 8.002 8.002 0 0 1-7.998 7.996zM480.494 687.946c-4.42 0-8.076-3.576-8.076-7.996 0-4.422 3.498-7.998 7.904-7.998h0.172a8.002 8.002 0 0 1 7.998 7.998 8 8 0 0 1-7.998 7.996z" fill=""/>
<path d="M647.958 703.942H376.042a7.994 7.994 0 0 1-7.998-7.998v-15.994c0-13.23 10.762-23.992 23.994-23.992h239.928c13.23 0 23.992 10.762 23.992 23.992v15.994c0 4.42-3.58 7.998-8 7.998z m-263.918-15.996h255.92v-7.996a8.014 8.014 0 0 0-7.996-7.998H392.038a8.012 8.012 0 0 0-7.998 7.998v7.996z" fill=""/>
<path d="M647.958 1023.844H376.042a7.994 7.994 0 0 1-7.998-7.998V695.944a7.994 7.994 0 0 1 7.998-7.998h271.916c4.422 0 8 3.578 8 7.998v319.902c0 4.42-3.58 7.998-8 7.998z m-263.918-15.996h255.92V703.942H384.04v303.906z" fill=""/>
<path d="M496.004 799.912h-87.972a7.994 7.994 0 0 1-7.998-7.998v-63.98a7.992 7.992 0 0 1 7.998-7.996h87.972a7.992 7.992 0 0 1 7.998 7.996v63.98a7.992 7.992 0 0 1-7.998 7.998z m-79.974-15.996h71.976v-47.984h-71.976v47.984zM615.968 735.932h-87.972c-4.422 0-8-3.576-8-7.998a7.994 7.994 0 0 1 8-7.996h87.972a7.99 7.99 0 0 1 7.996 7.996 7.99 7.99 0 0 1-7.996 7.998zM615.968 767.922h-87.972c-4.422 0-8-3.578-8-7.998s3.578-7.998 8-7.998h87.972c4.422 0 7.996 3.578 7.996 7.998s-3.574 7.998-7.996 7.998zM615.968 799.912h-87.972c-4.422 0-8-3.576-8-7.998a7.994 7.994 0 0 1 8-7.998h87.972a7.992 7.992 0 0 1 7.996 7.998 7.99 7.99 0 0 1-7.996 7.998z" fill=""/>
<path d="M615.968 895.882h-87.972c-4.422 0-8-3.578-8-7.998v-63.98a7.994 7.994 0 0 1 8-7.998h87.972a7.992 7.992 0 0 1 7.996 7.998v63.98a7.992 7.992 0 0 1-7.996 7.998z m-79.976-15.996h71.98v-47.984h-71.98v47.984zM496.004 831.902h-87.972c-4.42 0-7.998-3.578-7.998-7.998s3.578-7.998 7.998-7.998h87.972c4.42 0 7.998 3.578 7.998 7.998s-3.576 7.998-7.998 7.998zM496.004 863.892h-87.972c-4.42 0-7.998-3.578-7.998-7.998s3.578-7.998 7.998-7.998h87.972c4.42 0 7.998 3.578 7.998 7.998s-3.576 7.998-7.998 7.998zM496.004 895.882h-87.972c-4.42 0-7.998-3.578-7.998-7.998s3.578-7.998 7.998-7.998h87.972c4.42 0 7.998 3.578 7.998 7.998s-3.576 7.998-7.998 7.998z" fill=""/>
<path d="M496.004 991.854h-87.972a7.994 7.994 0 0 1-7.998-7.998v-63.98a7.994 7.994 0 0 1 7.998-7.998h87.972a7.994 7.994 0 0 1 7.998 7.998v63.98a7.994 7.994 0 0 1-7.998 7.998z m-79.974-15.996h71.976v-47.984h-71.976v47.984zM615.968 927.874h-87.972c-4.422 0-8-3.578-8-7.998s3.578-7.998 8-7.998h87.972c4.422 0 7.996 3.578 7.996 7.998s-3.574 7.998-7.996 7.998zM615.968 959.864h-87.972c-4.422 0-8-3.578-8-7.998s3.578-7.998 8-7.998h87.972c4.422 0 7.996 3.578 7.996 7.998s-3.574 7.998-7.996 7.998zM615.968 991.854h-87.972c-4.422 0-8-3.578-8-7.998s3.578-7.998 8-7.998h87.972c4.422 0 7.996 3.578 7.996 7.998s-3.574 7.998-7.996 7.998z" fill=""/>
<path d="M48.626 687.946c-4.42 0-8.076-3.576-8.076-7.996 0-4.422 3.5-7.998 7.904-7.998h0.172a8.002 8.002 0 0 1 7.998 7.998 8 8 0 0 1-7.998 7.996z" fill=""/>
<path d="M80.616 687.946c-4.42 0-8.076-3.576-8.076-7.996 0-4.422 3.5-7.998 7.904-7.998h0.172a8.002 8.002 0 0 1 7.998 7.998 8 8 0 0 1-7.998 7.996z" fill=""/>
<path d="M112.606 687.946c-4.42 0-8.076-3.576-8.076-7.996 0-4.422 3.5-7.998 7.904-7.998h0.172a8.002 8.002 0 0 1 7.998 7.998 8 8 0 0 1-7.998 7.996z" fill=""/>
<path d="M280.072 703.942H8.156a7.994 7.994 0 0 1-7.998-7.998v-15.994c0-13.23 10.762-23.992 23.992-23.992h239.926c13.23 0 23.994 10.762 23.994 23.992v15.994a7.994 7.994 0 0 1-7.998 7.998z m-263.92-15.996h255.92v-7.996a8.012 8.012 0 0 0-7.998-7.998H24.15a8.014 8.014 0 0 0-7.998 7.998v7.996z" fill=""/>
<path d="M280.072 1023.844H8.156a7.994 7.994 0 0 1-7.998-7.998V695.944a7.994 7.994 0 0 1 7.998-7.998h271.916a7.994 7.994 0 0 1 7.998 7.998v319.902a7.994 7.994 0 0 1-7.998 7.998z m-263.92-15.996h255.92V703.942H16.152v303.906z" fill=""/>
<path d="M248.082 815.906H40.146a7.992 7.992 0 0 1-7.998-7.996v-79.976a7.992 7.992 0 0 1 7.998-7.996h207.936a7.992 7.992 0 0 1 7.998 7.996v79.976c0 4.42-3.58 7.996-7.998 7.996z m-199.94-15.994h191.94v-63.98h-191.94v63.98z" fill=""/>
<path d="M88.13 927.874H40.146a7.994 7.994 0 0 1-7.998-7.998V839.9a7.992 7.992 0 0 1 7.998-7.996h47.984a7.992 7.992 0 0 1 7.998 7.996v79.976a7.996 7.996 0 0 1-7.998 7.998z m-39.988-15.998h31.99v-63.98H48.142v63.98z" fill=""/>
<path d="M168.106 927.874H120.12a7.994 7.994 0 0 1-7.998-7.998V839.9a7.992 7.992 0 0 1 7.998-7.996h47.986a7.992 7.992 0 0 1 7.998 7.996v79.976a7.996 7.996 0 0 1-7.998 7.998z m-39.988-15.998h31.99v-63.98H128.118v63.98z" fill=""/>
<path d="M248.082 927.874h-47.986a7.994 7.994 0 0 1-7.998-7.998V839.9a7.992 7.992 0 0 1 7.998-7.996h47.986a7.992 7.992 0 0 1 7.998 7.996v79.976a7.996 7.996 0 0 1-7.998 7.998z m-39.99-15.998h31.99v-63.98h-31.99v63.98z" fill=""/>
<path d="M248.082 959.864H40.146c-4.422 0-7.998-3.578-7.998-7.998s3.576-7.998 7.998-7.998h207.936c4.42 0 7.998 3.578 7.998 7.998s-3.58 7.998-7.998 7.998z" fill=""/>
<path d="M216.09 991.854H72.136c-4.422 0-7.998-3.578-7.998-7.998s3.576-7.998 7.998-7.998h143.956c4.42 0 7.998 3.578 7.998 7.998s-3.58 7.998-8 7.998z" fill=""/>
<path d="M776.402 991.854c-4.418 0-8.074-3.578-8.074-7.998s3.5-7.998 7.902-7.998h0.172c4.406 0 8 3.578 8 7.998s-3.594 7.998-8 7.998zM808.394 991.854c-4.422 0-8.078-3.578-8.078-7.998s3.5-7.998 7.906-7.998h0.172c4.402 0 7.996 3.578 7.996 7.998s-3.594 7.998-7.996 7.998zM840.382 991.854c-4.418 0-8.074-3.578-8.074-7.998s3.5-7.998 7.902-7.998h0.172c4.406 0 8 3.578 8 7.998s-3.592 7.998-8 7.998zM784.402 687.946c-4.422 0-8.078-3.576-8.078-7.996 0-4.422 3.5-7.998 7.906-7.998h0.172a8.002 8.002 0 0 1 7.996 7.998 8.002 8.002 0 0 1-7.996 7.996zM816.39 687.946c-4.418 0-8.074-3.576-8.074-7.996 0-4.422 3.5-7.998 7.902-7.998h0.172c4.406 0 8 3.576 8 7.998a8.004 8.004 0 0 1-8 7.996zM848.382 687.946c-4.422 0-8.078-3.576-8.078-7.996 0-4.422 3.5-7.998 7.906-7.998h0.172a8.002 8.002 0 0 1 7.996 7.998 8 8 0 0 1-7.996 7.996z" fill=""/>
<path d="M1015.848 703.942H743.93a7.992 7.992 0 0 1-7.996-7.998v-15.994c0-13.23 10.762-23.992 23.992-23.992h239.926c13.23 0 23.992 10.762 23.992 23.992v15.994a7.994 7.994 0 0 1-7.996 7.998z m-263.922-15.996h255.922v-7.996a8.014 8.014 0 0 0-7.996-7.998H759.926c-4.344 0-8 3.654-8 7.998v7.996z" fill=""/>
<path d="M1015.848 1023.844H743.93a7.992 7.992 0 0 1-7.996-7.998V695.944a7.992 7.992 0 0 1 7.996-7.998h271.918a7.994 7.994 0 0 1 7.996 7.998v319.902a7.994 7.994 0 0 1-7.996 7.998z m-263.922-15.996h255.922V703.942H751.926v303.906z" fill=""/>
<path d="M983.856 863.892H775.918a7.994 7.994 0 0 1-7.996-7.998v-95.97a7.994 7.994 0 0 1 7.996-7.998h207.938a7.992 7.992 0 0 1 7.996 7.998v95.97a7.992 7.992 0 0 1-7.996 7.998z m-199.938-15.996h191.942v-79.974h-191.942v79.974zM951.868 735.932h-143.958c-4.422 0-8-3.576-8-7.998a7.994 7.994 0 0 1 8-7.996h143.958a7.992 7.992 0 0 1 7.996 7.996 7.992 7.992 0 0 1-7.996 7.998zM983.856 895.882H775.918c-4.418 0-7.996-3.578-7.996-7.998s3.578-7.998 7.996-7.998h207.938c4.422 0 7.996 3.578 7.996 7.998s-3.574 7.998-7.996 7.998zM983.856 927.874H775.918c-4.418 0-7.996-3.578-7.996-7.998s3.578-7.998 7.996-7.998h207.938c4.422 0 7.996 3.578 7.996 7.998s-3.574 7.998-7.996 7.998z" fill=""/>
<path d="M887.886 959.864h-111.968c-4.418 0-7.996-3.578-7.996-7.998s3.578-7.998 7.996-7.998h111.968c4.418 0 7.996 3.578 7.996 7.998s-3.578 7.998-7.996 7.998z" fill=""/>
<path d="M472.012 512H144.112c-4.42 0-7.998-3.578-7.998-7.998s3.578-7.998 7.998-7.998h327.9c4.42 0 7.998 3.578 7.998 7.998S476.432 512 472.012 512z" fill=""/>
<path d="M879.886 622.966a7.994 7.994 0 0 1-7.996-7.998v-110.966a7.994 7.994 0 0 1 7.996-7.998c4.422 0 8 3.578 8 7.998v110.966a7.994 7.994 0 0 1-8 7.998z" fill=""/>
<path d="M879.886 622.966a7.968 7.968 0 0 1-5.652-2.344l-15.996-15.994a7.996 7.996 0 1 1 11.308-11.31l15.996 15.996a7.994 7.994 0 0 1-5.656 13.652z" fill=""/>
<path d="M879.886 622.966a7.994 7.994 0 0 1-5.652-13.652l15.992-15.996a8 8 0 0 1 11.312 11.31l-15.996 15.994a7.964 7.964 0 0 1-5.656 2.344z" fill=""/>
<path d="M879.886 512H551.988c-4.422 0-7.996-3.578-7.996-7.998s3.574-7.998 7.996-7.998h327.898c4.422 0 8 3.578 8 7.998s-3.578 7.998-8 7.998z" fill=""/>
</g>
</svg>