<!DOCTYPE svg PUBLIC "-//W3C//DTD SVG 1.1//EN" "http://www.w3.org/Graphics/SVG/1.1/DTD/svg11.dtd">
<!-- Uploaded to: SVG Repo, www.svgrepo.com, Transformed by: SVG Repo Mixer Tools -->
<svg width="800px" height="800px" viewBox="0 0 64 64" data-name="Layer 1" id="Layer_1" xmlns="http://www.w3.org/2000/svg" fill="#000000">
<g id="SVGRepo_bgCarrier" stroke-width="0"/>
<g id="SVGRepo_tracerCarrier" stroke-linecap="round" stroke-linejoin="round"/>
<g id="SVGRepo_iconCarrier">
<defs>
<style>.cls-1{fill:#d17609;}</style>
</defs>
<title/>
<path class="cls-1" d="M50.86,38.07H13.14a1,1,0,0,1-1-1V15.43a1,1,0,0,1,1-1H50.86a1,1,0,0,1,1,1V37.07A1,1,0,0,1,50.86,38.07Zm-36.72-2H49.86V16.43H14.14Z"/>
<path class="cls-1" d="M29.54,49.57H25.46a1,1,0,0,1-.84-.46,1,1,0,0,1-.07-1l4.5-9.75a1,1,0,0,1,1.82,0l2,4.42a1,1,0,0,1,0,.84L30.45,49A1,1,0,0,1,29.54,49.57Zm-2.52-2H28.9l2-4.33-.94-2Z"/>
<path class="cls-1" d="M34,39.82a1,1,0,0,1-.91-.58l-.81-1.75a1,1,0,0,1,.07-1,1,1,0,0,1,.84-.46h1.62a1,1,0,0,1,.84.46,1,1,0,0,1,.07,1L35,39.24A1,1,0,0,1,34,39.82Z"/>
<path class="cls-1" d="M38.54,49.57H34.46a1,1,0,0,1-.91-.58l-5.31-11.5a1,1,0,0,1,.07-1,1,1,0,0,1,.84-.46h4.08a1,1,0,0,1,.91.58l5.31,11.5a1,1,0,0,1-.07,1A1,1,0,0,1,38.54,49.57Zm-3.44-2H37l-4.39-9.5H30.71Z"/>
<path class="cls-1" d="M23.39,38.07H15.92a1,1,0,0,1-1-1V34.29a1,1,0,0,1,1-1h7.47a1,1,0,0,1,1,1v2.78A1,1,0,0,1,23.39,38.07Zm-6.47-2h5.47v-.78H16.92Z"/>
<path class="cls-1" d="M20.71,31.22A1,1,0,0,1,20,29.54a26.94,26.94,0,0,1,20.17-7.82A1,1,0,0,1,41,23.25l-1.5,2.36a1,1,0,1,1-1.69-1.07l.53-.83a25.37,25.37,0,0,0-16.83,7.18A1,1,0,0,1,20.71,31.22Z"/>
<path class="cls-1" d="M40.11,23.72a1,1,0,0,1-.81-.41l-1.74-2.39a1,1,0,1,1,1.61-1.18l1.74,2.39a1,1,0,0,1-.21,1.39A1,1,0,0,1,40.11,23.72Z"/>
<path class="cls-1" d="M46.38,34.32H31.91a1,1,0,0,1,0-2H46.38a1,1,0,0,1,0,2Z"/>
</g>
</svg>