<!DOCTYPE svg PUBLIC "-//W3C//DTD SVG 1.1//EN" "http://www.w3.org/Graphics/SVG/1.1/DTD/svg11.dtd">
<!-- Uploaded to: SVG Repo, www.svgrepo.com, Transformed by: SVG Repo Mixer Tools -->
<svg fill="#d17609" height="800px" width="800px" version="1.1" id="Layer_1" xmlns="http://www.w3.org/2000/svg" xmlns:xlink="http://www.w3.org/1999/xlink" viewBox="0 0 497.072 497.072" xml:space="preserve">
<g id="SVGRepo_bgCarrier" stroke-width="0"/>
<g id="SVGRepo_tracerCarrier" stroke-linecap="round" stroke-linejoin="round"/>
<g id="SVGRepo_iconCarrier"> <g> <g> <g> <path d="M495.48,300.568c-20.24-35.432-30.944-75.728-30.944-116.528v-23.504h16v-16h-16v-37.808 c9.928-11.28,16-26.024,16-42.192c0-35.288-28.712-64-64-64c-33.568,0-61.128,25.992-63.744,58.904 c-31.864-17.616-67.608-26.904-104.256-26.904c-98.464,0-183.168,65.512-208.424,160H8.536v68.28l24,16v19.72h-16v16h16v23.504 c0,40.808-10.704,81.104-30.944,116.528L0,455.36l10.288,41.176h140.504l10.288-41.176l-1.592-2.792 c-1.84-3.224-3.52-6.536-5.2-9.832c29.264,14.24,61.376,21.8,94.248,21.8c81.76,0,157.016-46.976,193.352-120h44.896 l10.288-41.176L495.48,300.568z M416.536,16.536c26.472,0,48,21.528,48,48s-21.528,48-48,48s-48-21.528-48-48 S390.064,16.536,416.536,16.536z M448.536,119.88v24.656h-64V119.88c9.424,5.472,20.336,8.656,32,8.656 S439.112,125.352,448.536,119.88z M24.536,252.256v-43.72h32v32h48v-32h32v43.72l-18.424,12.28H42.96L24.536,252.256z M112.536,280.536v16h-64v-16H112.536z M138.288,480.536H22.784l-4-16h85.752v-16H21.76c16.208-32.312,25.264-67.84,26.504-104 h32.272v-16h-32v-16h64v16h-16v16h16.272c1.232,36.16,10.296,71.688,26.504,104h-18.776v16h21.752L138.288,480.536z M248.536,448.536c-37.16,0-73.304-10.352-104.824-29.816c-9.912-26.36-15.176-54.376-15.176-82.68v-23.504h16v-16h-16v-19.72 l24-16v-68.28h-64v32h-16v-32H56.728c24.712-85.248,102.08-144,191.808-144c37.488,0,73.952,10.512,105.672,30.304 c2.416,10.52,7.424,20.04,14.328,27.88v37.816h-16v16h16v23.504c0,40.808-10.704,81.104-30.944,116.528L336,303.36l10.288,41.176 h77.632C389.032,408.096,321.56,448.536,248.536,448.536z M474.288,328.536H358.784l-4-16h85.752v-16H357.76 c16.208-32.312,25.264-67.84,26.504-104h32.272v-16h-32v-16h64v16h-16v16h16.272c1.232,36.16,10.296,71.688,26.504,104h-18.776 v16h21.752L474.288,328.536z"/> <path d="M248.536,392.536c-10.88,0-21.736-1.328-32.424-3.824c0.184-1.376,0.424-2.744,0.424-4.176c0-17.648-14.352-32-32-32 s-32,14.352-32,32s14.352,32,32,32c10.416,0,19.592-5.072,25.44-12.8c12.688,3.176,25.608,4.8,38.56,4.8 c39.944,0,78.272-14.952,107.912-42.104l-10.816-11.8C318.96,379.072,284.472,392.536,248.536,392.536z M184.536,400.536 c-8.824,0-16-7.176-16-16c0-8.824,7.176-16,16-16c8.824,0,16,7.176,16,16C200.536,393.36,193.36,400.536,184.536,400.536z"/> <path d="M280.952,108.448c-0.176,1.352-0.416,2.688-0.416,4.088c0,17.648,14.352,32,32,32s32-14.352,32-32s-14.352-32-32-32 c-10.464,0-19.688,5.12-25.528,12.912c-53.392-13.272-107.384,1.424-146.344,37.2l10.832,11.784 C185.992,110.744,233.472,97.384,280.952,108.448z M312.536,96.536c8.824,0,16,7.176,16,16s-7.176,16-16,16 c-8.824,0-16-7.176-16-16C296.536,103.712,303.712,96.536,312.536,96.536z"/> <path d="M112.68,164.312l13.576,8.456c3.256-5.224,6.904-10.328,10.856-15.168l-12.392-10.128 C120.344,152.84,116.288,158.504,112.68,164.312z"/> </g> </g> </g> </g>
</svg>