<!DOCTYPE svg PUBLIC "-//W3C//DTD SVG 1.1//EN" "http://www.w3.org/Graphics/SVG/1.1/DTD/svg11.dtd">
<!-- Uploaded to: SVG Repo, www.svgrepo.com, Transformed by: SVG Repo Mixer Tools -->
<svg fill=" #d17609" width="800px" height="800px" viewBox="0 0 24 24" xmlns="http://www.w3.org/2000/svg">
<g id="SVGRepo_bgCarrier" stroke-width="0"/>
<g id="SVGRepo_tracerCarrier" stroke-linecap="round" stroke-linejoin="round"/>
<g id="SVGRepo_iconCarrier">
<path d="M16.03,18.616l5.294-4.853a1,1,0,0,1,1.352,1.474l-6,5.5a1,1,0,0,1-1.383-.03l-3-3a1,1,0,0,1,1.414-1.414ZM1,20a9.01,9.01,0,0,1,5.623-8.337A4.981,4.981,0,1,1,10,13a7.011,7.011,0,0,0-6.929,6H10a1,1,0,0,1,0,2H2A1,1,0,0,1,1,20ZM7,8a3,3,0,1,0,3-3A3,3,0,0,0,7,8Z"/>
</g>
</svg>